<?xml version="1.0" standalone="no"?>
<!DOCTYPE svg PUBLIC "-//W3C//DTD SVG 20010904//EN"
 "http://www.w3.org/TR/2001/REC-SVG-20010904/DTD/svg10.dtd">
<svg version="1.0" xmlns="http://www.w3.org/2000/svg"
 width="1280.000000pt" height="905.000000pt" viewBox="0 0 1280.000000 905.000000"
 preserveAspectRatio="xMidYMid meet">
<g transform="translate(0.000000,905.000000) scale(0.100000,-0.100000)"
fill="#000000" stroke="none">
<path d="M6150 8465 c-200 -15 -240 -21 -353 -48 -63 -14 -91 -26 -98 -40 -7
-11 -9 -75 -7 -161 4 -176 16 -207 98 -248 30 -15 84 -37 120 -48 36 -11 88
-35 115 -55 28 -19 65 -42 83 -50 30 -14 156 -34 342 -52 56 -6 75 -12 75 -23
0 -10 -15 -17 -45 -21 -68 -10 -150 -52 -195 -98 -39 -41 -40 -44 -38 -104 1
-52 -2 -67 -23 -94 -27 -36 -29 -50 -10 -76 12 -16 12 -24 0 -53 -12 -29 -12
-39 -2 -62 11 -22 22 -28 60 -32 76 -9 76 -25 0 -65 -63 -33 -85 -66 -90 -137
-9 -115 32 -184 123 -209 68 -19 128 43 138 144 6 61 22 80 43 52 39 -52 56
-197 34 -290 -12 -54 -119 -160 -153 -151 -36 9 -96 -15 -131 -54 -22 -24 -43
-66 -61 -121 -15 -46 -31 -89 -36 -95 -5 -5 -21 -43 -38 -82 -26 -66 -97 -178
-203 -322 -22 -30 -56 -88 -76 -129 -30 -62 -36 -88 -40 -156 -4 -80 -4 -82
28 -118 18 -20 38 -37 46 -37 21 0 189 -86 269 -138 113 -73 224 -135 309
-172 85 -38 181 -115 243 -195 45 -60 41 -68 -57 -116 -105 -51 -110 -63 -110
-259 0 -108 -5 -170 -15 -204 -25 -83 -17 -87 26 -11 44 78 68 132 89 206 13
42 34 86 49 102 30 33 152 107 175 107 22 0 20 -33 -4 -80 -30 -59 -40 -153
-40 -399 0 -233 -13 -367 -52 -551 -34 -161 -79 -324 -95 -342 -25 -28 -46
-145 -44 -244 3 -128 -8 -150 -234 -435 -16 -21 -57 -71 -90 -111 -82 -98
-209 -301 -460 -733 -123 -211 -226 -374 -322 -509 -115 -162 -119 -166 -163
-166 -42 0 -74 -20 -95 -60 -24 -46 -18 -81 20 -129 19 -24 35 -48 35 -53 0
-14 -58 -65 -135 -118 -38 -26 -135 -104 -215 -174 -96 -83 -158 -129 -182
-136 -48 -14 -52 -22 -23 -50 36 -34 78 -21 214 71 148 99 201 123 332 152 98
23 104 25 102 48 -11 140 -8 173 27 249 124 270 205 398 409 648 42 51 87 108
101 125 13 18 65 79 115 137 50 58 104 123 120 145 16 22 111 122 211 222 209
208 226 236 273 423 34 136 91 259 146 316 l40 41 140 1 c77 1 161 -3 188 -9
58 -14 60 -27 16 -119 -65 -137 -111 -255 -125 -319 -10 -43 -16 -152 -19
-316 -5 -245 -9 -317 -40 -680 -33 -395 -65 -652 -86 -698 -6 -14 -23 -27 -38
-31 -39 -8 -80 -47 -87 -83 -6 -29 -3 -34 30 -54 45 -26 46 -49 6 -109 -50
-76 -46 -81 63 -74 269 17 453 20 502 7 55 -14 80 -10 90 15 9 25 -16 38 -115
56 -49 9 -110 26 -137 37 -27 12 -85 25 -132 29 -90 9 -111 19 -86 40 8 7 15
19 15 27 0 22 -30 76 -53 94 l-21 17 42 128 c43 134 65 220 127 514 60 278
134 572 199 785 14 44 36 126 51 182 30 121 65 221 111 319 27 56 34 83 34
131 0 63 3 70 99 247 18 33 75 124 126 202 52 79 118 185 146 235 28 51 62
110 77 133 68 108 175 354 209 481 61 226 73 336 53 477 -19 129 -73 211 -157
239 -51 16 -115 72 -144 123 -63 113 -122 190 -217 284 -166 163 -399 332
-569 413 -51 24 -93 50 -93 57 0 22 59 101 88 116 78 41 129 147 120 252 -7
77 -46 131 -141 193 -42 28 -77 56 -77 64 0 33 60 84 132 112 179 70 267 107
323 136 81 43 202 129 249 177 43 45 43 47 5 147 -23 61 -48 95 -162 219 -98
106 -242 229 -355 303 -83 54 -83 54 -68 78 23 36 20 66 -11 91 -16 12 -28 32
-28 45 0 18 -6 25 -26 27 -14 2 -31 -4 -39 -12 -7 -9 -18 -16 -26 -16 -15 0
-34 30 -34 54 0 21 60 83 91 95 29 11 49 63 49 132 0 58 -35 238 -54 275 -8
16 -19 42 -25 57 -20 51 -112 80 -331 102 -170 17 -332 17 -560 0z m646 -747
c39 -30 44 -39 33 -60 -7 -13 -4 -22 11 -35 11 -10 40 -38 63 -62 23 -24 61
-52 84 -62 42 -18 81 -65 200 -242 106 -158 164 -227 253 -299 30 -24 42 -40
35 -46 -5 -6 -59 -30 -120 -55 -86 -35 -132 -48 -210 -57 -55 -6 -126 -17
-157 -24 -63 -14 -135 -63 -161 -108 -9 -16 -23 -28 -31 -28 -20 0 -57 54 -59
87 -2 24 2 28 37 34 39 6 62 27 90 79 8 15 16 75 19 145 l6 120 40 35 c58 49
57 83 -5 155 -26 30 -56 55 -67 57 -14 2 -26 22 -46 78 -33 95 -72 161 -129
223 -25 26 -42 50 -38 54 12 12 69 31 97 32 15 0 39 -9 55 -21z m-418 -661
c18 -45 22 -68 16 -103 -13 -86 -71 -121 -113 -69 -39 50 -39 140 0 203 15 27
25 33 47 30 23 -3 31 -12 50 -61z m310 -87 c18 -11 47 -20 65 -20 38 0 57 -15
57 -44 -1 -46 -47 -77 -97 -66 -45 11 -67 32 -81 79 -23 75 -7 90 56 51z
m-261 -937 c14 -16 41 -52 60 -82 40 -62 211 -236 298 -302 33 -25 114 -77
180 -115 66 -37 179 -106 250 -152 72 -46 141 -91 155 -100 13 -8 66 -58 117
-110 104 -105 112 -126 66 -180 l-28 -32 -135 9 c-172 12 -261 -1 -358 -54
-36 -21 -80 -50 -96 -66 -31 -31 -56 -25 -56 12 0 11 -22 35 -52 57 -66 49
-179 168 -279 292 -161 200 -268 299 -391 361 -38 19 -58 35 -58 47 0 22 89
194 148 287 41 64 126 155 145 155 4 0 20 -12 34 -27z"/>
<path d="M1715 8394 c5 -10 10 -91 12 -179 4 -182 11 -207 73 -245 22 -14 40
-30 40 -36 0 -6 -11 -31 -24 -55 -50 -90 -75 -151 -86 -206 -13 -73 -13 -189
1 -214 8 -15 6 -31 -7 -65 -13 -34 -16 -63 -11 -122 4 -66 12 -92 56 -184 34
-71 62 -115 81 -130 24 -18 30 -29 30 -60 0 -82 -35 -125 -150 -179 -111 -52
-151 -133 -131 -265 28 -192 124 -332 459 -677 95 -97 106 -104 172 -109 26
-2 38 -10 51 -33 22 -37 39 -137 39 -227 l0 -68 -59 -65 c-154 -170 -356 -510
-456 -770 -56 -143 -165 -474 -199 -600 -26 -96 -77 -350 -95 -475 -17 -114
-58 -416 -81 -590 -11 -85 -25 -190 -31 -232 -6 -42 -13 -265 -14 -495 -2
-230 -5 -483 -7 -563 -3 -127 -1 -147 14 -160 15 -13 17 -43 19 -255 l3 -240
-27 -46 c-15 -25 -27 -55 -27 -66 0 -11 -7 -34 -15 -49 -8 -16 -15 -51 -15
-77 0 -43 -3 -50 -31 -65 -17 -9 -79 -49 -137 -87 -201 -133 -222 -144 -307
-160 -65 -12 -84 -20 -102 -43 -28 -34 -25 -44 16 -56 34 -10 43 -8 231 39 52
13 156 33 231 44 75 11 153 27 174 35 21 9 70 19 109 23 98 8 116 16 116 51 0
15 -4 32 -8 38 -5 5 -16 28 -26 52 -15 41 -15 46 1 93 18 49 18 50 -5 89 -12
21 -22 53 -22 69 0 17 -7 48 -15 69 -12 29 -13 45 -5 66 5 15 10 56 10 90 0
87 25 228 55 306 45 117 10 106 363 115 239 5 367 3 573 -9 145 -9 377 -23
514 -32 352 -21 363 -22 381 -49 15 -23 84 -252 84 -278 0 -8 -12 -22 -26 -32
-23 -15 -25 -21 -20 -60 4 -26 3 -46 -4 -50 -16 -10 -12 -50 8 -67 9 -8 30
-18 46 -22 27 -7 28 -9 24 -49 -3 -23 -21 -78 -42 -121 -42 -93 -49 -160 -16
-169 11 -3 44 1 73 9 63 17 314 19 419 3 40 -6 109 -19 153 -30 44 -11 97 -19
117 -19 47 0 91 17 85 33 -4 14 -112 70 -207 107 -35 14 -120 52 -189 86 -69
33 -148 66 -176 74 -62 16 -71 23 -78 58 -5 22 2 35 36 70 l42 43 -23 39 c-12
21 -22 48 -22 59 0 10 -16 32 -35 48 -33 26 -36 32 -36 83 -1 74 10 149 28
184 12 24 13 39 4 85 -6 31 -14 106 -17 166 -3 61 -12 131 -19 156 -7 26 -16
98 -20 160 -7 136 -21 243 -41 321 -8 31 -16 79 -19 105 -12 124 -44 384 -49
400 -15 47 -96 653 -96 716 0 86 -39 311 -126 732 -35 171 -64 327 -64 348 0
23 -8 49 -21 66 -11 15 -31 63 -43 107 -13 44 -44 127 -69 184 -25 58 -67 159
-93 225 -69 179 -161 345 -190 345 -20 0 -50 59 -82 165 -37 123 -47 188 -32
215 6 11 32 29 57 41 45 20 47 20 60 3 7 -10 13 -27 13 -38 0 -31 80 -224 120
-291 49 -81 129 -165 203 -214 273 -177 648 -165 983 32 126 74 183 124 218
192 24 47 36 61 57 63 39 4 70 43 139 172 71 132 84 192 57 276 -8 27 -18 90
-22 139 -7 94 -26 151 -53 159 -10 3 -84 21 -167 40 -82 19 -243 66 -357 104
-244 83 -420 123 -573 129 -104 5 -118 8 -245 58 -189 74 -355 129 -490 162
-105 25 -131 28 -309 28 l-195 0 -18 40 c-27 60 -21 96 20 109 105 35 212 305
212 531 0 76 -44 209 -88 265 -15 19 -39 52 -51 73 l-24 39 35 36 c45 47 74
98 83 142 4 19 15 64 25 100 10 36 21 79 25 95 l6 30 -25 -27 c-31 -32 -95
-77 -153 -106 -47 -24 -90 -62 -122 -109 -14 -20 -36 -36 -59 -43 -53 -14 -59
-13 -66 16 -20 79 -48 115 -136 174 -87 59 -140 110 -140 135 0 8 -5 17 -12
21 -8 5 -9 2 -3 -12z m1281 -1968 c76 -17 175 -52 239 -85 36 -19 57 -21 265
-21 221 0 568 -20 724 -40 43 -6 103 -21 135 -34 62 -25 64 -32 37 -98 l-16
-37 -117 5 c-65 2 -220 9 -346 14 -125 6 -268 10 -317 10 -88 0 -91 1 -127 34
-73 65 -117 80 -228 81 -84 0 -107 -4 -147 -23 -41 -21 -183 -50 -325 -66 -46
-6 -52 -4 -58 14 -8 26 5 252 16 265 10 13 171 2 265 -19z m1518 -363 c9 -26
16 -62 16 -80 0 -44 -26 -106 -42 -101 -7 2 -22 33 -34 69 -19 58 -20 68 -7
103 15 45 32 68 43 61 5 -3 15 -26 24 -52z"/>
<path d="M10331 7770 c-63 -10 -130 -34 -188 -67 -27 -16 -50 -22 -63 -18 -16
5 -28 -2 -53 -31 -17 -21 -59 -68 -93 -104 -65 -70 -143 -169 -164 -210 -7
-14 -24 -38 -37 -53 -43 -52 -124 -237 -183 -417 -50 -154 -157 -582 -184
-740 -28 -155 -100 -372 -211 -635 -26 -60 -55 -134 -66 -163 -23 -66 -46
-101 -123 -181 -34 -35 -51 -58 -39 -52 60 31 71 -2 16 -48 -21 -17 -32 -30
-26 -31 7 0 34 20 60 45 25 25 53 45 60 45 23 0 27 -29 7 -52 l-19 -22 29 22
c57 44 90 23 56 -36 -21 -35 -21 -36 -1 -12 11 14 21 28 21 32 0 13 58 38 74
32 21 -8 20 -38 0 -70 -9 -13 -14 -27 -11 -30 3 -3 17 17 31 45 22 42 31 51
52 51 27 0 28 -4 8 -67 -3 -10 6 2 19 26 25 46 48 61 80 53 19 -5 19 -6 2 -72
-4 -17 0 -14 15 12 20 37 50 53 87 46 14 -3 18 -12 16 -43 l-3 -40 13 34 c16
41 51 71 84 71 24 0 25 -3 19 -37 l-6 -38 21 40 c23 43 45 65 67 65 10 0 12
-14 7 -67 -3 -38 -7 -115 -9 -173 -4 -98 -3 -102 10 -70 17 39 30 50 61 50 20
0 21 -4 20 -87 0 -49 4 -96 9 -106 7 -12 9 12 6 78 -5 114 6 135 70 135 43 0
43 -1 28 -80 -6 -29 -6 -59 -1 -67 5 -11 12 11 21 66 14 88 22 97 86 89 29 -3
29 -3 34 -88 l6 -85 4 80 c5 77 6 80 30 80 18 0 29 -9 42 -33 15 -32 17 -32
20 -10 2 19 10 24 40 26 31 3 40 -1 55 -24 l17 -27 6 24 c8 31 67 40 87 13 12
-17 13 -17 13 2 0 25 18 44 42 44 13 0 25 -14 37 -42 l18 -42 11 33 c7 19 12
44 12 57 0 30 30 61 41 42 24 -37 -12 -149 -77 -244 -20 -30 -45 -76 -54 -104
-16 -46 -16 -59 -4 -123 18 -95 18 -263 -1 -360 -21 -110 -160 -384 -247 -486
-74 -88 -380 -341 -512 -425 -25 -16 -82 -65 -186 -160 -14 -13 -64 -51 -112
-85 -90 -63 -103 -77 -68 -68 23 6 43 -14 34 -36 -4 -11 2 -16 22 -19 39 -4
53 -31 29 -58 l-19 -21 28 11 c21 8 32 7 42 -1 17 -14 18 -45 2 -53 -7 -3 -4
-5 7 -5 37 2 44 -1 55 -20 8 -16 5 -26 -16 -50 -14 -17 -21 -31 -16 -31 5 0
15 6 21 14 20 24 49 25 68 4 18 -20 17 -22 -52 -86 -38 -35 -52 -51 -30 -35
22 17 55 38 74 48 31 15 35 15 49 1 15 -15 13 -20 -26 -59 -49 -50 -56 -71
-11 -33 28 24 59 34 59 20 0 -6 -29 -68 -164 -348 -113 -233 -320 -580 -380
-635 -28 -26 -32 -50 -16 -82 8 -13 7 -26 -1 -41 -23 -45 -158 -184 -244 -253
-49 -38 -109 -91 -134 -116 -72 -71 -261 -317 -261 -339 0 -10 9 -24 19 -30
11 -5 23 -19 26 -30 5 -15 15 -20 44 -20 65 0 134 44 254 164 72 73 137 127
182 153 103 60 155 122 155 184 0 47 50 111 148 189 95 76 128 87 207 66 66
-17 268 -83 470 -153 126 -43 381 -115 458 -128 32 -5 37 -9 37 -33 0 -54 -39
-181 -74 -244 -40 -73 -43 -88 -20 -123 15 -23 23 -25 88 -25 67 0 220 18 325
39 26 5 57 5 80 -1 22 -6 83 -8 156 -3 66 4 144 7 173 6 28 0 52 4 52 9 0 6
-5 10 -12 10 -6 0 -19 6 -27 14 -9 7 -63 19 -120 26 -99 12 -184 30 -386 80
-117 30 -119 31 -123 73 -4 40 25 104 69 155 16 18 40 54 53 80 50 99 66 94
161 -52 38 -58 72 -106 76 -106 14 0 31 70 24 99 -10 46 14 223 46 340 16 58
39 153 50 211 22 109 30 142 99 375 71 237 63 220 95 220 27 0 29 4 70 130 23
72 64 175 92 230 61 121 140 354 152 450 5 39 25 189 44 335 37 275 62 518 73
701 10 155 -24 610 -57 782 -24 122 -55 191 -108 241 -64 60 -51 90 52 126 95
33 160 22 246 -44 41 -31 51 -32 51 -8 0 18 -199 235 -231 253 -29 15 -55 3
-78 -37 -25 -42 -114 -87 -163 -82 -27 2 -40 14 -75 63 -23 33 -48 75 -54 94
-11 31 -9 36 12 52 13 11 47 27 74 38 l50 19 10 60 c6 38 18 69 32 84 46 49
55 136 21 194 -14 24 -22 62 -28 132 -4 53 -13 110 -19 126 -14 35 -6 99 21
176 11 30 22 71 25 90 3 19 9 40 14 46 6 7 -9 46 -41 108 -58 111 -61 132 -22
147 63 25 77 35 79 59 0 14 1 30 2 36 1 7 13 15 29 19 34 8 62 33 62 54 0 9
-11 33 -25 53 -14 20 -25 41 -25 45 0 4 17 22 37 39 l38 32 -17 35 c-10 20
-28 43 -42 52 -20 13 -25 25 -24 58 0 34 -5 46 -31 69 -18 17 -43 28 -59 28
-18 0 -38 11 -57 30 -36 38 -64 38 -99 1 -24 -25 -33 -28 -66 -24 -87 12 -218
-67 -240 -146 -5 -20 -10 -71 -10 -114 0 -71 -3 -82 -29 -115 -42 -54 -44 -76
-15 -172 31 -103 43 -123 95 -156 l41 -26 -23 -25 c-29 -31 -142 -108 -227
-154 l-63 -34 -32 37 c-18 21 -45 54 -62 74 -31 39 -78 64 -120 64 -19 0 -25
5 -25 20 0 12 41 107 91 213 131 275 168 393 175 552 2 50 6 124 10 166 3 45
1 94 -6 118 -13 49 -85 124 -147 152 -49 23 -138 31 -212 19z"/>
<path d="M8886 4993 c-6 -14 -5 -15 5 -6 7 7 10 15 7 18 -3 3 -9 -2 -12 -12z"/>
<path d="M9602 4990 c0 -14 2 -19 5 -12 2 6 2 18 0 25 -3 6 -5 1 -5 -13z"/>
<path d="M9175 2629 c-4 -6 -5 -12 -2 -15 2 -3 7 2 10 11 7 17 1 20 -8 4z"/>
<path d="M9336 2536 c-20 -18 -36 -39 -36 -45 0 -17 14 -6 50 39 39 49 33 51
-14 6z"/>
</g>
</svg>
